<?xml version="1.0" standalone="no"?>
<!DOCTYPE svg PUBLIC "-//W3C//DTD SVG 20010904//EN"
 "http://www.w3.org/TR/2001/REC-SVG-20010904/DTD/svg10.dtd">
<svg version="1.0" xmlns="http://www.w3.org/2000/svg"
 width="397.000000pt" height="352.000000pt" viewBox="0 0 397.000000 352.000000"
 preserveAspectRatio="xMidYMid meet">

<g transform="translate(0.000000,352.000000) scale(0.100000,-0.100000)"
fill="#000000" stroke="none">
<path d="M2610 3149 c-36 -17 -130 -59 -210 -94 -295 -129 -426 -187 -465
-205 -22 -10 -94 -42 -160 -70 -288 -123 -412 -186 -460 -233 -6 -7 -28 -27
-48 -44 -94 -82 -137 -212 -137 -413 0 -170 21 -250 87 -334 81 -104 177 -147
609 -275 124 -36 122 -59 -9 -111 -140 -56 -369 -165 -430 -204 -91 -59 -174
-145 -206 -218 -43 -95 -51 -151 -51 -363 0 -228 -8 -216 116 -159 97 45 328
146 704 309 486 210 538 238 619 332 89 102 124 219 124 403 0 122 -13 206
-44 277 -24 56 -111 144 -175 176 -40 20 -392 138 -484 162 -93 24 -106 53
-37 85 23 10 136 61 252 112 234 103 313 154 393 254 33 42 56 84 73 135 22
69 24 89 24 288 0 134 -4 215 -10 217 -5 2 -39 -11 -75 -27z"/>
</g>
</svg>
